solid OpenSCAD_Model
  facet normal -1 0 0
    outer loop
      vertex -32.5 -19 0
      vertex -32.5 -19 26.4
      vertex -32.5 19 0
    endloop
  endfacet
  facet normal -1 0 0
    outer loop
      vertex -32.5 19 0
      vertex -32.5 -19 26.4
      vertex -32.5 -15 26.4
    endloop
  endfacet
  facet normal -1 0 0
    outer loop
      vertex -32.5 19 0
      vertex -32.5 -15 26.4
      vertex -32.5 15 40
    endloop
  endfacet
  facet normal -1 0 0
    outer loop
      vertex -32.5 19 0
      vertex -32.5 15 40
      vertex -32.5 19 40
    endloop
  endfacet
  facet normal 0 -1 0
    outer loop
      vertex -32.5 -19 26.4
      vertex -32.5 -19 0
      vertex 32.5 -19 0
    endloop
  endfacet
  facet normal 0 -1 0
    outer loop
      vertex 32.5 -19 26.4
      vertex -32.5 -19 26.4
      vertex 32.5 -19 0
    endloop
  endfacet
  facet normal 0 0 -1
    outer loop
      vertex -32.5 -19 0
      vertex -32.5 19 0
      vertex 32.5 -19 0
    endloop
  endfacet
  facet normal 0 0 -1
    outer loop
      vertex 32.5 -19 0
      vertex -32.5 19 0
      vertex 32.5 19 0
    endloop
  endfacet
  facet normal 0 1 0
    outer loop
      vertex -32.5 19 0
      vertex -32.5 19 40
      vertex 32.5 19 0
    endloop
  endfacet
  facet normal 0 1 0
    outer loop
      vertex 32.5 19 0
      vertex -32.5 19 40
      vertex 32.5 19 40
    endloop
  endfacet
  facet normal 0 0 1
    outer loop
      vertex -32.5 19 40
      vertex -32.5 15 40
      vertex -30.5 15 40
    endloop
  endfacet
  facet normal 0 0 1
    outer loop
      vertex 30.5 17 40
      vertex -32.5 19 40
      vertex -30.5 17 40
    endloop
  endfacet
  facet normal 0 0 1
    outer loop
      vertex -30.5 17 40
      vertex -32.5 19 40
      vertex -30.5 15 40
    endloop
  endfacet
  facet normal 0 0 1
    outer loop
      vertex 32.5 19 40
      vertex -32.5 19 40
      vertex 30.5 17 40
    endloop
  endfacet
  facet normal 0 0 1
    outer loop
      vertex 32.5 15 40
      vertex 30.5 17 40
      vertex 30.5 15 40
    endloop
  endfacet
  facet normal 0 0 1
    outer loop
      vertex 32.5 19 40
      vertex 30.5 17 40
      vertex 32.5 15 40
    endloop
  endfacet
  facet normal 0 -0.412888 0.910782
    outer loop
      vertex -30.5 -15 26.4
      vertex -30.5 15 40
      vertex -32.5 15 40
    endloop
  endfacet
  facet normal 0 -0.412888 0.910782
    outer loop
      vertex -32.5 -15 26.4
      vertex -30.5 -15 26.4
      vertex -32.5 15 40
    endloop
  endfacet
  facet normal 0 0 1
    outer loop
      vertex 32.5 -19 26.4
      vertex 32.5 -15 26.4
      vertex 30.5 -15 26.4
    endloop
  endfacet
  facet normal 0 0 1
    outer loop
      vertex -30.5 -17 26.4
      vertex 32.5 -19 26.4
      vertex 30.5 -17 26.4
    endloop
  endfacet
  facet normal 0 0 1
    outer loop
      vertex 30.5 -17 26.4
      vertex 32.5 -19 26.4
      vertex 30.5 -15 26.4
    endloop
  endfacet
  facet normal 0 0 1
    outer loop
      vertex -32.5 -19 26.4
      vertex 32.5 -19 26.4
      vertex -30.5 -17 26.4
    endloop
  endfacet
  facet normal 0 0 1
    outer loop
      vertex -32.5 -15 26.4
      vertex -30.5 -17 26.4
      vertex -30.5 -15 26.4
    endloop
  endfacet
  facet normal 0 0 1
    outer loop
      vertex -32.5 -19 26.4
      vertex -30.5 -17 26.4
      vertex -32.5 -15 26.4
    endloop
  endfacet
  facet normal 1 0 0
    outer loop
      vertex 32.5 -19 26.4
      vertex 32.5 -19 0
      vertex 32.5 19 0
    endloop
  endfacet
  facet normal 1 0 0
    outer loop
      vertex 32.5 -15 26.4
      vertex 32.5 -19 26.4
      vertex 32.5 19 0
    endloop
  endfacet
  facet normal 1 0 0
    outer loop
      vertex 32.5 19 40
      vertex 32.5 -15 26.4
      vertex 32.5 19 0
    endloop
  endfacet
  facet normal 1 0 0
    outer loop
      vertex 32.5 15 40
      vertex 32.5 -15 26.4
      vertex 32.5 19 40
    endloop
  endfacet
  facet normal 0 -0.412888 0.910782
    outer loop
      vertex 32.5 -15 26.4
      vertex 32.5 15 40
      vertex 30.5 15 40
    endloop
  endfacet
  facet normal 0 -0.412888 0.910782
    outer loop
      vertex 30.5 -15 26.4
      vertex 32.5 -15 26.4
      vertex 30.5 15 40
    endloop
  endfacet
  facet normal -1 0 0
    outer loop
      vertex 30.5 -15 26.4
      vertex 30.5 15 40
      vertex 30.5 17 40
    endloop
  endfacet
  facet normal -1 0 0
    outer loop
      vertex 30.5 -15 26.4
      vertex 30.5 17 40
      vertex 30.5 17 2
    endloop
  endfacet
  facet normal -1 0 0
    outer loop
      vertex 30.5 -15 26.4
      vertex 30.5 17 2
      vertex 30.5 -17 26.4
    endloop
  endfacet
  facet normal -1 0 0
    outer loop
      vertex 30.5 17 2
      vertex 30.5 -17 2
      vertex 30.5 -17 26.4
    endloop
  endfacet
  facet normal 0 -1 0
    outer loop
      vertex 30.5 17 2
      vertex 30.5 17 40
      vertex -30.5 17 40
    endloop
  endfacet
  facet normal 0 -1 0
    outer loop
      vertex -30.5 17 2
      vertex 30.5 17 2
      vertex -30.5 17 40
    endloop
  endfacet
  facet normal 1 0 0
    outer loop
      vertex -30.5 17 2
      vertex -30.5 17 40
      vertex -30.5 15 40
    endloop
  endfacet
  facet normal 1 0 0
    outer loop
      vertex -30.5 -17 26.4
      vertex -30.5 17 2
      vertex -30.5 -15 26.4
    endloop
  endfacet
  facet normal 1 0 0
    outer loop
      vertex -30.5 -15 26.4
      vertex -30.5 17 2
      vertex -30.5 15 40
    endloop
  endfacet
  facet normal 1 0 0
    outer loop
      vertex -30.5 -17 2
      vertex -30.5 17 2
      vertex -30.5 -17 26.4
    endloop
  endfacet
  facet normal 0 1 0
    outer loop
      vertex 30.5 -17 26.4
      vertex 30.5 -17 2
      vertex -30.5 -17 26.4
    endloop
  endfacet
  facet normal 0 1 0
    outer loop
      vertex -30.5 -17 26.4
      vertex 30.5 -17 2
      vertex -30.5 -17 2
    endloop
  endfacet
  facet normal 0 0 1
    outer loop
      vertex 30.5 -17 2
      vertex 30.5 17 2
      vertex -30.5 17 2
    endloop
  endfacet
  facet normal 0 0 1
    outer loop
      vertex -30.5 -17 2
      vertex 30.5 -17 2
      vertex -30.5 17 2
    endloop
  endfacet
endsolid OpenSCAD_Model
